<svg xmlns="http://www.w3.org/2000/svg" viewBox="0 0 520 190" role="img" aria-labelledby="title desc">
  <title id="title">DZN sniper accent</title>
  <desc id="desc">Long sniper rifle silhouette with scope and purple glow.</desc>
  <defs>
    <radialGradient id="glow" cx="66%" cy="48%" r="54%">
      <stop offset="0" stop-color="#a855f7" stop-opacity=".62"/>
      <stop offset=".45" stop-color="#4c1d95" stop-opacity=".28"/>
      <stop offset="1" stop-color="#020617" stop-opacity="0"/>
    </radialGradient>
    <linearGradient id="metal" x1="60" x2="480" y1="0" y2="0">
      <stop offset="0" stop-color="#030712"/>
      <stop offset=".2" stop-color="#46566f"/>
      <stop offset=".46" stop-color="#d8e2f0"/>
      <stop offset=".68" stop-color="#293244"/>
      <stop offset="1" stop-color="#020617"/>
    </linearGradient>
    <linearGradient id="wood" x1="68" x2="214" y1="106" y2="163">
      <stop offset="0" stop-color="#2d120a"/>
      <stop offset=".48" stop-color="#9a4a21"/>
      <stop offset="1" stop-color="#120704"/>
    </linearGradient>
    <filter id="drop" x="-20%" y="-30%" width="150%" height="160%">
      <feDropShadow dx="0" dy="0" stdDeviation="6" flood-color="#a855f7" flood-opacity=".42"/>
      <feDropShadow dx="0" dy="5" stdDeviation="7" flood-color="#000" flood-opacity=".78"/>
    </filter>
  </defs>
  <rect width="520" height="190" fill="url(#glow)"/>
  <g fill="none" stroke="#a855f7" stroke-opacity=".28" stroke-width="2">
    <ellipse cx="372" cy="95" rx="118" ry="32"/>
    <ellipse cx="388" cy="95" rx="86" ry="21"/>
    <path d="M185 133c94-55 193-81 297-77"/>
  </g>
  <g filter="url(#drop)" stroke-linecap="round" stroke-linejoin="round">
    <path d="M24 103h402" stroke="url(#metal)" stroke-width="13"/>
    <path d="M424 100h72" stroke="#0f172a" stroke-width="7"/>
    <path d="M492 100h36" stroke="#dbeafe" stroke-width="4"/>
    <path d="M118 91h154l47 20H96z" fill="url(#metal)" stroke="#020617" stroke-width="4"/>
    <path d="M287 83h88" stroke="url(#metal)" stroke-width="8"/>
    <path d="M139 113c-26 31-63 48-111 52l43-52z" fill="url(#wood)" stroke="#120704" stroke-width="4"/>
    <path d="M187 111l30 73h45l-33-73z" fill="#0b1220" stroke="#020617" stroke-width="4"/>
    <path d="M205 124c12 17 28 19 44 3" fill="none" stroke="#64748b" stroke-width="4"/>
    <path d="M303 60c0-29 24-51 56-51s56 22 56 51-24 51-56 51-56-22-56-51z" fill="#07111f" stroke="url(#metal)" stroke-width="7"/>
    <path d="M324 60h75M359 26v75" stroke="#dbeafe" stroke-width="4" opacity=".75"/>
    <path d="M322 98h84" stroke="#020617" stroke-width="5"/>
    <path d="M34 98h-40M90 94h42M153 88h38M248 93h36" stroke="#d8e2f0" stroke-width="3" opacity=".72"/>
    <path d="M416 97l66 6-66 8z" fill="#f8fafc" opacity=".66"/>
  </g>
</svg>
