<svg xmlns="http://www.w3.org/2000/svg" viewBox="0 0 900 360" role="img" aria-labelledby="title desc">
  <title id="title">DZN Network</title>
  <desc id="desc">Temporary DZN Network logo fallback</desc>
  <defs>
    <linearGradient id="text" x1="0" y1="0" x2="1" y2="1">
      <stop offset="0" stop-color="#ffffff"/>
      <stop offset="0.48" stop-color="#f4f0ff"/>
      <stop offset="1" stop-color="#a78bfa"/>
    </linearGradient>
    <linearGradient id="network" x1="0" y1="0" x2="1" y2="0">
      <stop offset="0" stop-color="#c4b5fd"/>
      <stop offset="0.55" stop-color="#8b5cf6"/>
      <stop offset="1" stop-color="#67e8f9"/>
    </linearGradient>
    <filter id="glow" x="-20%" y="-35%" width="140%" height="180%">
      <feGaussianBlur stdDeviation="7" result="blur"/>
      <feColorMatrix in="blur" type="matrix" values="0 0 0 0 0.45 0 0 0 0 0.23 0 0 0 0 1 0 0 0 0.72 0"/>
      <feMerge>
        <feMergeNode/>
        <feMergeNode in="SourceGraphic"/>
      </feMerge>
    </filter>
    <clipPath id="slash">
      <path d="M388 42h80L365 248h-80z"/>
      <path d="M448 42h54L399 248h-54z"/>
      <path d="M505 42h36L438 248h-36z"/>
    </clipPath>
  </defs>
  <rect width="900" height="360" fill="#02030a"/>
  <path d="M0 278c160-28 276-18 388-50 122-34 235-64 512-34v166H0z" fill="#050916"/>
  <g opacity=".36">
    <path d="M78 278l18-46 18 46zM122 278l26-62 26 62zM703 272l22-58 22 58zM754 272l30-78 30 78z" fill="#111827"/>
    <path d="M692 104h70v168h-70z" fill="none" stroke="#4338ca" stroke-width="5"/>
    <path d="M678 104h98M692 144h70M692 185h70M692 226h70M700 272l54-168M754 272l-54-168" stroke="#6d5dfc" stroke-width="5" stroke-linecap="round"/>
  </g>
  <g filter="url(#glow)">
    <text x="56" y="210" fill="url(#text)" font-family="Impact, Haettenschweiler, 'Arial Black', sans-serif" font-size="208" font-weight="900" letter-spacing="-15">DZN</text>
    <g clip-path="url(#slash)">
      <rect x="260" y="20" width="340" height="250" fill="#02030a" opacity=".92"/>
    </g>
    <text x="154" y="302" fill="url(#network)" font-family="'Arial Black', Arial, sans-serif" font-size="54" font-weight="900" letter-spacing="35">NETWORK</text>
  </g>
  <path d="M86 318h116M703 318h116" stroke="#67e8f9" stroke-width="4" stroke-linecap="round" opacity=".78"/>
</svg>
